<svg id="LINE_LOGO" data-name="LINE LOGO" xmlns="http://www.w3.org/2000/svg" width="54.59" height="54.58" viewBox="0 0 54.59 54.58"><defs><style>.cls-1{fill:#312c30;}.cls-2{fill:#fff;}</style></defs><path class="cls-1" d="M27.29,54.58a27.29,27.29,0,1,1,27.3-27.29A27.32,27.32,0,0,1,27.29,54.58Z"/><g id="TYPE_A" data-name="TYPE A"><path class="cls-2" d="M45.47,25.94c0-8.13-8.14-14.73-18.14-14.73S9.18,17.81,9.18,25.94c0,7.28,6.45,13.37,15.17,14.52.6.13,1.4.39,1.6.9A3.64,3.64,0,0,1,26,43s-.21,1.28-.26,1.55c-.08.46-.36,1.8,1.58,1S37.78,39.38,41.58,35h0c2.63-2.89,3.89-5.81,3.89-9.06"/><path class="cls-1" d="M23.64,22H22.36a.35.35,0,0,0-.35.35v7.91a.35.35,0,0,0,.35.35h1.28a.35.35,0,0,0,.35-.35V22.36a.35.35,0,0,0-.35-.35"/><path class="cls-1" d="M32.4,22H31.13a.36.36,0,0,0-.36.35v4.7l-3.62-4.89,0,0h0l0,0H25.58a.35.35,0,0,0-.35.35v7.91a.35.35,0,0,0,.35.35h1.28a.35.35,0,0,0,.35-.35V25.58l3.63,4.9a.24.24,0,0,0,.09.08H32.4a.35.35,0,0,0,.35-.35V22.36A.35.35,0,0,0,32.4,22"/><path class="cls-1" d="M20.57,28.64H17.11V22.36a.35.35,0,0,0-.35-.35H15.48a.35.35,0,0,0-.35.35v7.91h0a.37.37,0,0,0,.1.25h0a.34.34,0,0,0,.24.09h5.09a.35.35,0,0,0,.35-.35V29a.36.36,0,0,0-.35-.36"/><path class="cls-1" d="M39.43,24a.35.35,0,0,0,.35-.35V22.37a.36.36,0,0,0-.35-.36H34.34a.35.35,0,0,0-.24.1h0a.35.35,0,0,0-.1.24h0v7.9h0a.37.37,0,0,0,.1.25h0a.34.34,0,0,0,.24.09h5.09a.35.35,0,0,0,.35-.35V29a.36.36,0,0,0-.35-.36H36V27.31h3.46a.36.36,0,0,0,.35-.36V25.68a.35.35,0,0,0-.35-.35H36V24Z"/></g></svg>
