<svg id="LINE_LOGO" data-name="LINE LOGO" xmlns="http://www.w3.org/2000/svg" width="54.59" height="54.58" viewBox="0 0 54.59 54.58"><defs><style>.cls-1{fill:#312c30;}.cls-2{fill:#fff;fill-rule:evenodd;}</style></defs><path class="cls-1" d="M27.29,54.58a27.29,27.29,0,1,1,27.3-27.29A27.32,27.32,0,0,1,27.29,54.58Z"/><path class="cls-2" d="M23,27.42V43.24a.41.41,0,0,0,.41.41H29.3a.41.41,0,0,0,.41-.41V27.16H34a.41.41,0,0,0,.41-.37l.41-4.85a.41.41,0,0,0-.41-.44H29.71V18.06a1.46,1.46,0,0,1,1.46-1.46h3.28a.41.41,0,0,0,.41-.41V11.35a.41.41,0,0,0-.41-.42H28.91a5.9,5.9,0,0,0-5.9,5.9V21.5H20.08a.41.41,0,0,0-.42.41v4.84a.41.41,0,0,0,.42.41H23Z"/></svg>
